<svg width="24" height="24" viewBox="0 0 24 24" fill="none" xmlns="http://www.w3.org/2000/svg">
<path d="M9.25289 7.28732C10.7388 5.85341 13.1978 5.85032 14.688 7.27805L14.6953 7.28529C16.1843 8.76865 16.1814 11.1542 14.6973 12.6107C14.5186 12.7861 14.3147 12.9424 14.0881 13.1154L13.6127 13.4783L14.1425 13.7557C14.4816 13.9332 14.8233 14.1789 15.1191 14.4691C15.9195 15.2547 16.419 16.3272 16.419 17.5324C16.419 17.6357 16.3829 17.6884 16.3442 17.7212C16.2973 17.761 16.2211 17.7905 16.1302 17.7905C16.0392 17.7905 15.963 17.761 15.9161 17.7212C15.8775 17.6884 15.8413 17.6357 15.8413 17.5324C15.8413 16.4744 15.3987 15.5261 14.7102 14.8505C13.2234 13.3913 10.7802 13.3904 9.29235 14.8479C8.57099 15.53 8.15855 16.4821 8.15855 17.5324C8.15855 17.6357 8.12243 17.6884 8.0838 17.7212C8.03687 17.761 7.9607 17.7905 7.86973 17.7905C7.77876 17.7905 7.70259 17.761 7.65566 17.7212C7.61702 17.6884 7.5809 17.6357 7.5809 17.5324C7.5809 16.3272 8.08037 15.2546 8.88079 14.4692L8.88625 14.4638L8.89148 14.4582C9.15597 14.177 9.49249 13.9337 9.83257 13.7557L10.4399 13.4377L9.84918 13.0899C9.63994 12.9667 9.44223 12.7964 9.25288 12.6106C7.76957 11.1549 7.76595 8.77085 9.25289 7.28732ZM14.2913 7.6716L14.2913 7.67158L14.2883 7.66865C13.0239 6.42775 10.9259 6.42773 9.66152 7.66866L9.6615 7.66864L9.65856 7.67159C8.39574 8.93843 8.39143 10.983 9.66155 12.2294C10.926 13.4701 13.024 13.4703 14.2883 12.2294C15.5584 10.9829 15.5541 8.93851 14.2913 7.6716Z" fill="#1D9BF0" stroke="#1D9BF0" stroke-width="0.761905"/>
<mask id="path-2-inside-1_2798_4823" fill="white">
<rect x="2.3999" y="2.40002" width="19.2" height="19.2" rx="1"/>
</mask>
<rect x="2.3999" y="2.40002" width="19.2" height="19.2" rx="1" stroke="#1D9BF0" stroke-width="2.6" mask="url(#path-2-inside-1_2798_4823)"/>
</svg>
