<svg width="22" height="21" viewBox="0 0 22 21" fill="none" xmlns="http://www.w3.org/2000/svg">
<path d="M21.08 0.350024H0.919951C0.497499 0.350024 0.149951 0.674275 0.149951 1.08002V20.12C0.149951 20.3147 0.231909 20.5005 0.376559 20.6372C0.521114 20.7737 0.716518 20.85 0.919951 20.85H21.08C21.2834 20.85 21.4788 20.7737 21.6233 20.6372C21.768 20.5005 21.85 20.3147 21.85 20.12V1.08002C21.85 0.885359 21.768 0.699508 21.6233 0.562894C21.4788 0.426371 21.2834 0.350024 21.08 0.350024ZM20.31 19.39H1.68995V1.81002H20.31V19.39Z" fill="#1D9BF0" stroke="#1D9BF0" stroke-width="0.1"/>
<path d="M5.84857 17.461C5.68439 17.6071 5.46523 17.6864 5.23978 17.6864C5.01432 17.6864 4.79516 17.6071 4.63098 17.461M5.84857 17.461C6.01317 17.3146 6.10978 17.1122 6.10978 16.8964V10.4964C6.10978 10.0441 5.70309 9.70645 5.23978 9.70645C4.77646 9.70645 4.36978 10.0441 4.36978 10.4964V16.8964C4.36978 17.1122 4.46638 17.3146 4.63098 17.461M5.84857 17.461C5.84855 17.461 5.84852 17.461 5.84849 17.4611L5.74884 17.3489L5.84857 17.461ZM4.63098 17.461L4.73071 17.3489L4.63106 17.4611C4.63103 17.461 4.631 17.461 4.63098 17.461Z" fill="#1D9BF0" stroke="#1D9BF0" stroke-width="0.3"/>
<path d="M11.6086 17.461C11.4444 17.6072 11.2252 17.6865 10.9998 17.6865C10.7743 17.6865 10.5552 17.6072 10.391 17.461M11.6086 17.461C11.7732 17.3147 11.8698 17.1122 11.8698 16.8965V7.93651C11.8698 7.48415 11.4631 7.14651 10.9998 7.14651C10.5365 7.14651 10.1298 7.48415 10.1298 7.93651V16.8965C10.1298 17.1122 10.2264 17.3147 10.391 17.461M11.6086 17.461C11.6086 17.4611 11.6085 17.4611 11.6085 17.4611L11.5088 17.349L11.6086 17.461ZM10.391 17.461L10.4907 17.349L10.3911 17.4611C10.391 17.4611 10.391 17.4611 10.391 17.461Z" fill="#1D9BF0" stroke="#1D9BF0" stroke-width="0.3"/>
<path d="M16.7598 17.6864C16.9852 17.6864 17.2043 17.6071 17.3685 17.461L16.2507 17.3489L16.151 17.461C16.151 17.461 16.1511 17.461 16.1511 17.461C16.3153 17.6071 16.5344 17.6864 16.7598 17.6864Z" fill="#1D9BF0" stroke="#1D9BF0" stroke-width="0.3"/>
</svg>
