<svg width="22" height="21" viewBox="0 0 22 21" fill="none" xmlns="http://www.w3.org/2000/svg">
<path d="M21.08 0.349902H0.919951C0.497499 0.349902 0.149951 0.674153 0.149951 1.0799V20.1199C0.149951 20.3146 0.231909 20.5004 0.376559 20.637C0.521114 20.7736 0.716518 20.8499 0.919951 20.8499H21.08C21.2834 20.8499 21.4788 20.7736 21.6233 20.637C21.768 20.5004 21.85 20.3146 21.85 20.1199V1.0799C21.85 0.885237 21.768 0.699386 21.6233 0.562772C21.4788 0.426249 21.2834 0.349902 21.08 0.349902ZM20.31 19.3899H1.68995V1.8099H20.31V19.3899Z" fill="white" stroke="white" stroke-width="0.1"/>
<path d="M5.84857 17.461C5.68439 17.6071 5.46523 17.6864 5.23978 17.6864C5.01432 17.6864 4.79516 17.6071 4.63098 17.461M5.84857 17.461C6.01317 17.3146 6.10978 17.1122 6.10978 16.8964V10.4964C6.10978 10.0441 5.70309 9.70645 5.23978 9.70645C4.77646 9.70645 4.36978 10.0441 4.36978 10.4964V16.8964C4.36978 17.1122 4.46638 17.3146 4.63098 17.461M5.84857 17.461C5.84855 17.461 5.84852 17.461 5.84849 17.4611L5.74884 17.3489L5.84857 17.461ZM4.63098 17.461L4.73071 17.3489L4.63106 17.4611C4.63103 17.461 4.631 17.461 4.63098 17.461Z" fill="white" stroke="white" stroke-width="0.3"/>
<path d="M11.6086 17.4609C11.4444 17.6071 11.2252 17.6864 10.9998 17.6864C10.7743 17.6864 10.5552 17.6071 10.391 17.4609M11.6086 17.4609C11.7732 17.3146 11.8698 17.1121 11.8698 16.8964V7.93639C11.8698 7.48403 11.4631 7.14639 10.9998 7.14639C10.5365 7.14639 10.1298 7.48403 10.1298 7.93639V16.8964C10.1298 17.1121 10.2264 17.3146 10.391 17.4609M11.6086 17.4609C11.6086 17.4609 11.6085 17.461 11.6085 17.461L11.5088 17.3489L11.6086 17.4609ZM10.391 17.4609L10.4907 17.3489L10.3911 17.461C10.391 17.461 10.391 17.4609 10.391 17.4609Z" fill="white" stroke="white" stroke-width="0.3"/>
<path d="M16.7598 17.6863C16.9852 17.6863 17.2043 17.607 17.3685 17.4609L16.2507 17.3488L16.151 17.4608C16.151 17.4609 16.1511 17.4609 16.1511 17.4609C16.3153 17.607 16.5344 17.6863 16.7598 17.6863Z" fill="white" stroke="white" stroke-width="0.3"/>
</svg>
