<svg width="24" height="24" viewBox="0 0 24 24" fill="none" xmlns="http://www.w3.org/2000/svg">
<path d="M10.9119 11.8518V2.84988C10.9119 2.51897 10.6437 2.25002 10.3121 2.25002H2.84974C2.51884 2.25002 2.2499 2.51821 2.2499 2.84988V11.8518C2.2499 12.1827 2.51808 12.4516 2.84974 12.4516H10.3121C10.643 12.4516 10.9119 12.1835 10.9119 11.8518ZM14.2878 12.748H20.5496V20.55H14.2878V12.748ZM21.7499 21.1502V12.1483C21.7499 11.8174 21.4817 11.5484 21.1501 11.5484H13.6877C13.3568 11.5484 13.0879 11.8166 13.0879 12.1483V21.1502C13.0879 21.4812 13.3567 21.75 13.6877 21.75H21.1501C21.481 21.75 21.7499 21.4818 21.7499 21.1502ZM14.2878 3.44966H20.5496V8.26105H14.2878V3.44966ZM21.7499 8.86084V2.84988C21.7499 2.51897 21.4817 2.25002 21.1501 2.25002H13.6877C13.3568 2.25002 13.0879 2.51821 13.0879 2.84988V8.86084C13.0879 9.19186 13.3567 9.46069 13.6877 9.46069H21.1501C21.4811 9.46069 21.7499 9.19183 21.7499 8.86084ZM3.45039 3.44966H9.71213V11.2517H3.45039V3.44966ZM10.9125 21.1498V15.1389C10.9125 14.808 10.6443 14.539 10.3126 14.539H2.8503C2.51928 14.539 2.25046 14.8079 2.25046 15.1389V21.1498C2.25046 21.4807 2.51864 21.7497 2.8503 21.7497H10.3126C10.6435 21.7497 10.9125 21.4815 10.9125 21.1498ZM3.45039 15.7386H9.71213V20.55H3.45039V15.7386Z" fill="white" stroke="white" stroke-width="0.3"/>
</svg>
