<svg width="24" height="24" viewBox="0 0 24 24" fill="none" xmlns="http://www.w3.org/2000/svg">
<path d="M10.9119 11.8517V2.84975C10.9119 2.51885 10.6437 2.2499 10.3121 2.2499H2.84974C2.51884 2.2499 2.2499 2.51809 2.2499 2.84975V11.8517C2.2499 12.1826 2.51808 12.4515 2.84974 12.4515H10.3121C10.643 12.4515 10.9119 12.1833 10.9119 11.8517ZM14.2878 12.7479H20.5496V20.5499H14.2878V12.7479ZM21.7499 21.1501V12.1481C21.7499 11.8172 21.4817 11.5483 21.1501 11.5483H13.6877C13.3568 11.5483 13.0879 11.8165 13.0879 12.1481V21.1501C13.0879 21.4811 13.3567 21.7499 13.6877 21.7499H21.1501C21.481 21.7499 21.7499 21.4817 21.7499 21.1501ZM14.2878 3.44953H20.5496V8.26093H14.2878V3.44953ZM21.7499 8.86071V2.84975C21.7499 2.51885 21.4817 2.2499 21.1501 2.2499H13.6877C13.3568 2.2499 13.0879 2.51809 13.0879 2.84975V8.86071C13.0879 9.19173 13.3567 9.46056 13.6877 9.46056H21.1501C21.4811 9.46056 21.7499 9.19171 21.7499 8.86071ZM3.45039 3.44953H9.71213V11.2515H3.45039V3.44953ZM10.9125 21.1497V15.1387C10.9125 14.8078 10.6443 14.5389 10.3126 14.5389H2.8503C2.51928 14.5389 2.25046 14.8077 2.25046 15.1387V21.1497C2.25046 21.4806 2.51864 21.7496 2.8503 21.7496H10.3126C10.6435 21.7496 10.9125 21.4814 10.9125 21.1497ZM3.45039 15.7385H9.71213V20.5499H3.45039V15.7385Z" fill="#1D9BF0" stroke="#1D9BF0" stroke-width="0.3"/>
</svg>
