<svg width="32" height="32" viewBox="0 0 32 32" fill="none" xmlns="http://www.w3.org/2000/svg">
<path d="M14.4993 15.8025V3.8C14.4993 3.38637 14.1641 3.0502 13.7495 3.0502H3.79974C3.38611 3.0502 3.04995 3.38543 3.04995 3.8V15.8025C3.04995 16.2162 3.38517 16.5524 3.79974 16.5524H13.7495C14.1631 16.5524 14.4993 16.2171 14.4993 15.8025ZM19.0005 16.9475H27.4495V27.4502H19.0005V16.9475ZM28.95 28.2004V16.1978C28.95 15.7842 28.6147 15.448 28.2002 15.448H18.2504C17.8368 15.448 17.5006 15.7833 17.5006 16.1978V28.2004C17.5006 28.6141 17.8367 28.9502 18.2504 28.9502H28.2002C28.6138 28.9502 28.95 28.615 28.95 28.2004ZM19.0005 4.5497H27.4495V11.0649H19.0005V4.5497ZM28.95 11.8146V3.8C28.95 3.38637 28.6147 3.0502 28.2002 3.0502H18.2504C17.8368 3.0502 17.5006 3.38543 17.5006 3.8V11.8146C17.5006 12.2284 17.8367 12.5644 18.2504 12.5644H28.2002C28.6139 12.5644 28.95 12.2283 28.95 11.8146ZM4.5506 4.5497H12.9996V15.0524H4.5506V4.5497ZM14.5 28.1999V20.1853C14.5 19.7717 14.1648 19.4355 13.7503 19.4355H3.80048C3.38674 19.4355 3.0507 19.7716 3.0507 20.1853V28.1999C3.0507 28.6136 3.38592 28.9497 3.80048 28.9497H13.7503C14.1639 28.9497 14.5 28.6145 14.5 28.1999ZM4.5506 20.935H12.9996V27.4502H4.5506V20.935Z" fill="#AAD9F9" stroke="#AAD9F9" stroke-width="0.3"/>
</svg>
