<svg width="32" height="32" viewBox="0 0 32 32" fill="none" xmlns="http://www.w3.org/2000/svg">
<path d="M29.4401 3.1502H2.5601C2.00512 3.1502 1.5501 3.57595 1.5501 4.10686V29.4935C1.5501 29.7483 1.65737 29.9918 1.84702 30.1709C2.03657 30.3499 2.29298 30.4502 2.5601 30.4502H29.4401C29.7072 30.4502 29.9636 30.3499 30.1532 30.1709C30.3428 29.9918 30.4501 29.7483 30.4501 29.4935V4.10686C30.4501 3.85205 30.3428 3.60859 30.1532 3.42947C29.9636 3.25045 29.7072 3.1502 29.4401 3.1502ZM28.4301 28.5369H3.5701V5.06353H28.4301V28.5369Z" fill="white" stroke="white" stroke-width="0.1"/>
<path d="M7.54138 25.9106C7.75056 26.0968 8.03072 26.1986 8.31986 26.1986C8.609 26.1986 8.88916 26.0968 9.09835 25.9106C9.30795 25.7243 9.42986 25.4676 9.42986 25.1953V16.6619C9.42986 16.0918 8.9157 15.6586 8.31986 15.6586C7.72403 15.6586 7.20986 16.0918 7.20986 16.6619V25.1953C7.20986 25.4676 7.33178 25.7243 7.54138 25.9106ZM7.54138 25.9106L7.64084 25.7989L7.54146 25.9107C7.54143 25.9107 7.54141 25.9107 7.54138 25.9106Z" fill="white" stroke="white" stroke-width="0.3"/>
<path d="M15.2216 25.9109C15.4307 26.0971 15.7109 26.1988 16 26.1988C16.2892 26.1988 16.5693 26.0971 16.7785 25.9109C16.9881 25.7245 17.11 25.4678 17.11 25.1955V13.2488C17.11 12.6787 16.5959 12.2455 16 12.2455C15.4042 12.2455 14.89 12.6787 14.89 13.2488V25.1955C14.89 25.4678 15.012 25.7245 15.2216 25.9109ZM15.2216 25.9109L15.3213 25.7988L15.2216 25.911C15.2216 25.9109 15.2216 25.9109 15.2216 25.9109Z" fill="white" stroke="white" stroke-width="0.3"/>
<path d="M23.68 26.1987C23.9691 26.1987 24.2492 26.097 24.4584 25.9108C24.668 25.7245 24.79 25.4677 24.79 25.1954V8.12872C24.79 7.55857 24.2758 7.12539 23.68 7.12539C23.0841 7.12539 22.57 7.55857 22.57 8.12872V25.1954C22.57 25.4677 22.6919 25.7245 22.9016 25.9108C23.1107 26.097 23.3909 26.1987 23.68 26.1987Z" fill="white" stroke="white" stroke-width="0.3"/>
</svg>
