<svg width="32" height="32" viewBox="0 0 32 32" fill="none" xmlns="http://www.w3.org/2000/svg">
<path d="M29.4401 3.14995H2.5601C2.00512 3.14995 1.5501 3.57571 1.5501 4.10662V29.4933C1.5501 29.7481 1.65737 29.9916 1.84702 30.1707C2.03657 30.3497 2.29298 30.45 2.5601 30.45H29.4401C29.7072 30.45 29.9636 30.3497 30.1532 30.1707C30.3428 29.9916 30.4501 29.7481 30.4501 29.4933V4.10662C30.4501 3.85181 30.3428 3.60834 30.1532 3.42923C29.9636 3.2502 29.7072 3.14995 29.4401 3.14995ZM28.4301 28.5366H3.5701V5.06328H28.4301V28.5366Z" fill="#1D9BF0" stroke="#1D9BF0" stroke-width="0.1"/>
<path d="M7.54138 25.9106C7.75056 26.0968 8.03072 26.1986 8.31986 26.1986C8.609 26.1986 8.88916 26.0968 9.09835 25.9106C9.30795 25.7243 9.42986 25.4676 9.42986 25.1953V16.6619C9.42986 16.0918 8.9157 15.6586 8.31986 15.6586C7.72403 15.6586 7.20986 16.0918 7.20986 16.6619V25.1953C7.20986 25.4676 7.33178 25.7243 7.54138 25.9106ZM7.54138 25.9106L7.64084 25.7989L7.54146 25.9107C7.54143 25.9107 7.54141 25.9107 7.54138 25.9106Z" fill="#1D9BF0" stroke="#1D9BF0" stroke-width="0.3"/>
<path d="M15.2216 25.9106C15.4307 26.0969 15.7109 26.1986 16 26.1986C16.2892 26.1986 16.5693 26.0969 16.7785 25.9106C16.9881 25.7243 17.11 25.4676 17.11 25.1953V13.2486C17.11 12.6784 16.5959 12.2453 16 12.2453C15.4042 12.2453 14.89 12.6784 14.89 13.2486V25.1953C14.89 25.4676 15.012 25.7243 15.2216 25.9106ZM15.2216 25.9106L15.3213 25.7986L15.2216 25.9107C15.2216 25.9107 15.2216 25.9107 15.2216 25.9106Z" fill="#1D9BF0" stroke="#1D9BF0" stroke-width="0.3"/>
<path d="M23.68 26.1986C23.9691 26.1986 24.2492 26.0969 24.4584 25.9107C24.668 25.7244 24.79 25.4676 24.79 25.1953V8.1286C24.79 7.55845 24.2758 7.12527 23.68 7.12527C23.0841 7.12527 22.57 7.55845 22.57 8.1286V25.1953C22.57 25.4676 22.6919 25.7244 22.9016 25.9107C23.1107 26.0969 23.3909 26.1986 23.68 26.1986Z" fill="#1D9BF0" stroke="#1D9BF0" stroke-width="0.3"/>
</svg>
