<svg width="32" height="32" viewBox="0 0 32 32" fill="none" xmlns="http://www.w3.org/2000/svg">
<path d="M12.2484 9.62579C14.279 7.66551 17.6367 7.66132 19.673 9.61324L19.6835 9.62375C21.7183 11.6508 21.7153 14.9128 19.6856 16.9048C19.4406 17.1452 19.1623 17.3583 18.8613 17.5881L18.3859 17.951L18.9158 18.2284C19.3789 18.4708 19.8446 18.8058 20.2479 19.2016C21.3377 20.2711 22.0191 21.7332 22.0191 23.3766C22.0191 23.5508 21.9551 23.6568 21.8746 23.7251C21.7858 23.8004 21.6538 23.8477 21.5071 23.8477C21.3603 23.8477 21.2283 23.8004 21.1395 23.7251C21.059 23.6568 20.995 23.5508 20.995 23.3766C20.995 22.0021 20.42 20.7698 19.5248 19.8912C17.5914 17.9939 14.4123 17.993 12.478 19.8887C11.5417 20.7737 11.0052 22.0098 11.0052 23.3766C11.0052 23.5508 10.9412 23.6568 10.8607 23.7251C10.7719 23.8004 10.6399 23.8477 10.4931 23.8477C10.3463 23.8477 10.2144 23.8004 10.1256 23.7251C10.0451 23.6568 9.98105 23.5508 9.98105 23.3766C9.98105 21.7331 10.6624 20.2711 11.7523 19.2016L11.7577 19.1962L11.763 19.1906C12.1267 18.8039 12.5873 18.4714 13.0514 18.2284L13.6587 17.9105L13.068 17.5626C12.776 17.3908 12.5039 17.1556 12.2484 16.9048C10.2193 14.9135 10.2157 11.653 12.2484 9.62579ZM18.9653 10.3184L18.9653 10.3184L18.9623 10.3155C17.3258 8.70943 14.6075 8.70941 12.9711 10.3155L12.9711 10.3155L12.9682 10.3184C11.3333 11.9586 11.329 14.6037 12.9712 16.2152C14.6077 17.8211 17.3259 17.8213 18.9623 16.2152C20.6045 14.6036 20.6002 11.9587 18.9653 10.3184Z" fill="#AAD9F9" stroke="#AAD9F9" stroke-width="0.761905"/>
<mask id="path-2-inside-1_2869_4791" fill="white">
<rect x="3.19995" y="3.2002" width="25.6" height="25.6" rx="1"/>
</mask>
<rect x="3.19995" y="3.2002" width="25.6" height="25.6" rx="1" stroke="#AAD9F9" stroke-width="2.6" mask="url(#path-2-inside-1_2869_4791)"/>
</svg>
